<svg xmlns="http://www.w3.org/2000/svg" viewBox="0 0 64 64">
  <defs>
    <linearGradient id="bananaFill" x1="0%" x2="100%" y1="0%" y2="100%">
      <stop offset="0%" stop-color="#ffe37a"/>
      <stop offset="55%" stop-color="#ffd24d"/>
      <stop offset="100%" stop-color="#f2b81f"/>
    </linearGradient>
  </defs>
  <rect width="64" height="64" rx="16" fill="#142235"/>
  <path d="M18 18c11 2 23 11 27 24 2 7 2 12-1 15-4 3-10 2-17-2C16 49 9 35 12 23c1-4 3-6 6-5z" fill="url(#bananaFill)"/>
  <path d="M19 20c9 3 19 10 24 21 2 5 2 9 0 11-2 1-6 1-11-2C22 45 15 35 16 25c0-2 1-4 3-5z" fill="none" stroke="#6a4a09" stroke-linecap="round" stroke-width="3"/>
  <circle cx="18" cy="18" r="3" fill="#6a4a09"/>
  <circle cx="43" cy="49" r="2.6" fill="#7b5a1d"/>
</svg>
